<?xml version="1.0" encoding="utf-8"?>
<!-- Generator: Adobe Illustrator 16.0.0, SVG Export Plug-In . SVG Version: 6.00 Build 0)  -->
<!DOCTYPE svg PUBLIC "-//W3C//DTD SVG 1.1//EN" "http://www.w3.org/Graphics/SVG/1.1/DTD/svg11.dtd">
<svg version="1.1" id="Layer_1" xmlns="http://www.w3.org/2000/svg" xmlns:xlink="http://www.w3.org/1999/xlink" x="0px" y="0px"
	 width="10.9px" height="9.9px" viewBox="0 0 10.9 9.9" enable-background="new 0 0 10.9 9.9" xml:space="preserve">
<path opacity="0.5" d="M6.3,0C-0.1-0.5,0,8.6,0,8.6l2.3-0.7C1.7,4.2,3.4,2.2,4.9,1.7c1.4-0.5,3.3,0.2,4.1,1.6c1.2,2.2,0,5.1-2.6,5
	C4,8.3,3.6,4.9,5,3.7c1.4-1.2,3.2-0.1,3.1,1.5C8.1,5.9,7.4,6,6.8,5.8C6.3,5.6,6,5,6,5S5.1,5.4,5.2,6.1c0,0.9,0.9,1.3,1.7,1.3
	c0.9,0,1.8-0.9,1.9-2.1c0.2-2.6-2.5-3.9-4.4-2.1C2,5.3,2.7,9.9,6.6,9.9c2,0,3.8-1.6,4.2-3.8C11.2,4,10.1,0.3,6.3,0"/>
</svg>
