<?xml version="1.0" encoding="utf-8"?>
<!-- Generator: Adobe Illustrator 15.0.2, SVG Export Plug-In . SVG Version: 6.00 Build 0)  -->
<!DOCTYPE svg PUBLIC "-//W3C//DTD SVG 1.1//EN" "http://www.w3.org/Graphics/SVG/1.1/DTD/svg11.dtd">
<svg version="1.1" id="Layer_1" xmlns="http://www.w3.org/2000/svg" xmlns:xlink="http://www.w3.org/1999/xlink" x="0px" y="0px"
	 width="69.982px" height="64.997px" viewBox="0 0 69.982 64.997" enable-background="new 0 0 69.982 64.997" xml:space="preserve">
<path d="M14.206,0.062C2.302,0.982-1.012,12.321,0.252,18.888c1.318,6.844,6.852,11.884,13.054,11.895
	c12.116,0.021,14.343-14.359,7.275-20.943C14.59,4.26,6.121,8.396,6.758,16.419c0.297,3.735,3.198,6.539,5.857,6.584
	c2.455,0.042,5.062-1.462,5.214-4.144c0.112-1.983-2.671-3.316-2.671-3.316s-0.939,1.766-2.568,2.497
	c-1.628,0.73-3.788,0.417-3.989-1.745c-0.49-5.246,5.256-8.502,9.619-4.811c4.36,3.691,3.072,14.39-4.457,14.57
	C5.509,26.251,1.795,17.346,5.66,10.389c2.546-4.584,8.604-6.502,12.843-5.069c4.789,1.617,10.057,7.889,8.206,19.369l7.184,2.031
	C33.893,26.72,34.354-1.495,14.206,0.062"/>
<path d="M55.777,0.062C35.63-1.495,36.091,26.72,36.091,26.72l7.184-2.031C41.424,13.209,46.691,6.937,51.48,5.32
	c4.239-1.433,10.297,0.485,12.844,5.069c3.863,6.957,0.149,15.862-8.104,15.665c-7.529-0.18-8.817-10.879-4.457-14.57
	c4.363-3.691,10.109-0.435,9.619,4.811c-0.201,2.162-2.361,2.475-3.989,1.745c-1.629-0.731-2.567-2.497-2.567-2.497
	s-2.783,1.333-2.671,3.316c0.151,2.682,2.759,4.186,5.214,4.144c2.658-0.045,5.56-2.849,5.856-6.584
	C63.863,8.396,55.394,4.26,49.402,9.84c-7.067,6.584-4.841,20.964,7.275,20.943c6.202-0.011,11.736-5.051,13.053-11.895
	C70.996,12.321,67.681,0.982,55.777,0.062"/>
<path d="M48.335,30.962c-2.038-1.542-3.866-3.953-3.866-3.953l-9.478,2.768l-9.476-2.768c0,0-1.828,2.411-3.866,3.953
	c-9.906,7.503-20.88-3.456-20.88-3.456L7.265,39.84l4.541,0.82l9.377-3.616l0.936,8.834l7.923,18.113l4.95,1.006h0.001l4.95-1.006
	l7.923-18.113l0.937-8.834l9.377,3.616l4.541-0.82l6.495-12.334C69.215,27.506,58.24,38.465,48.335,30.962"/>
</svg>
