<?xml version="1.0" encoding="utf-8"?>
<!-- Generator: Adobe Illustrator 16.0.0, SVG Export Plug-In . SVG Version: 6.00 Build 0)  -->
<!DOCTYPE svg PUBLIC "-//W3C//DTD SVG 1.1//EN" "http://www.w3.org/Graphics/SVG/1.1/DTD/svg11.dtd">
<svg version="1.1" id="Layer_1" xmlns="http://www.w3.org/2000/svg" xmlns:xlink="http://www.w3.org/1999/xlink" x="0px" y="0px"
	 width="41.3px" height="41.3px" viewBox="0 0 41.3 41.3" enable-background="new 0 0 41.3 41.3" xml:space="preserve">
<g>
	<path d="M23.4,24.8v4c0,1.7,0.1,2.8,0.2,3.3c0.3,1,1,1.7,2.1,1.9c0.7,0.1,1.1,0.3,1.3,0.5c0.1,0.1,0.2,0.3,0.2,0.5
		c0,0.6-0.5,0.9-1.5,0.9c-0.2,0-0.6,0-1.1,0c-1.3-0.1-2.3-0.1-2.9-0.1c-0.5,0-1.4,0-2.7,0.1c-0.5,0-0.9,0-1.1,0
		c-1,0-1.5-0.3-1.5-0.9c0-0.4,0.3-0.7,0.8-0.8c0.8-0.2,1.4-0.5,1.7-0.9c0.3-0.4,0.6-0.8,0.7-1.4c0.1-0.5,0.1-1.5,0.1-3v-4
		c0-2.6-0.2-4.2-0.6-4.9c-0.3-0.4-0.9-0.7-2-0.8c-0.6-0.1-0.9-0.4-0.9-0.9c0-0.3,0.1-0.5,0.2-0.6c0.1-0.1,0.6-0.3,1.5-0.6
		c1.5-0.5,2.6-0.9,3.4-1.4c0.8-0.5,1.4-0.8,1.6-0.8c0.2,0,0.4,0.1,0.6,0.2c0.2,0.2,0.4,0.4,0.4,0.6c0,0.2,0,0.4-0.1,0.7
		c-0.3,1-0.4,2.5-0.4,4.7L23.4,24.8z"/>
</g>
<path d="M17,7.6c0.6,5.5,8.2,4,8.2,4l-0.9-1.8c-3,1.1-5,0-5.6-1.2c-0.6-1.1-0.4-2.8,0.7-3.7C21,3.3,23.6,3.9,24,6.1
	c0.3,2-2.5,2.9-3.7,1.9c-1.2-1-0.6-2.7,0.8-2.8c0.6-0.1,0.8,0.5,0.7,1C21.7,6.7,21.2,7,21.2,7s0.5,0.7,1,0.6c0.7-0.2,1-1,0.9-1.6
	c-0.1-0.7-1-1.4-2.1-1.2C18.8,5,18.1,7.5,20,8.8c2.1,1.6,5.9,0.2,5.3-3c-0.3-1.7-2-2.9-3.9-2.9C19.5,2.8,16.6,4.3,17,7.6"/>
</svg>
