<?xml version="1.0" encoding="utf-8"?>
<!-- Generator: Adobe Illustrator 16.0.0, SVG Export Plug-In . SVG Version: 6.00 Build 0)  -->
<!DOCTYPE svg PUBLIC "-//W3C//DTD SVG 1.1//EN" "http://www.w3.org/Graphics/SVG/1.1/DTD/svg11.dtd">
<svg version="1.1" id="Layer_1" xmlns="http://www.w3.org/2000/svg" xmlns:xlink="http://www.w3.org/1999/xlink" x="0px" y="0px"
	 width="41.3px" height="41.3px" viewBox="0 0 41.3 41.3" enable-background="new 0 0 41.3 41.3" xml:space="preserve">
<g id="message_x5F_in_1_">
	<path fill="#010101" d="M33.5,16.7v15L26,24.2L33.5,16.7z M16.4,25.2l-8.5,8.5h25.6l-8.5-8.5H16.4z M15.3,24.2l-7.5-7.5v15
		L15.3,24.2z M20.7,3.9l12.8,12.8h-2.1l-7.5,7.5h-6.4L10,16.7H7.8L20.7,3.9z M22.3,9.2H19c-0.3,0-0.5,0.1-0.5,0.4v4.9h-3
		c-0.2,0-0.2,0.2-0.1,0.3l5.1,6.1c0.1,0.1,0.3,0.2,0.4,0l5.1-6.1c0.1-0.1,0-0.3-0.1-0.3h-3V9.6C22.8,9.3,22.6,9.2,22.3,9.2z"/>
</g>
</svg>
