<?xml version="1.0" encoding="utf-8"?>
<!-- Generator: Adobe Illustrator 16.0.0, SVG Export Plug-In . SVG Version: 6.00 Build 0)  -->
<!DOCTYPE svg PUBLIC "-//W3C//DTD SVG 1.1//EN" "http://www.w3.org/Graphics/SVG/1.1/DTD/svg11.dtd">
<svg version="1.1" id="Layer_1" xmlns="http://www.w3.org/2000/svg" xmlns:xlink="http://www.w3.org/1999/xlink" x="0px" y="0px"
	 width="41.3px" height="41.3px" viewBox="0 0 41.3 41.3" enable-background="new 0 0 41.3 41.3" xml:space="preserve">
<g id="pencil_1_">
	<path fill="#010101" d="M27.2,9.9l0.5,0.5l3.2,3.2l0.5,0.5l0.5-0.5l1.1-1.1l0.5-0.5c0.3-0.3,0.3-0.8,0-1.1l-3.2-3.2
		c-0.3-0.3-0.8-0.3-1.1,0l-0.5,0.5l-1.1,1.1L27.2,9.9z"/>
	<rect x="12" y="16.9" transform="matrix(0.7071 -0.7071 0.7071 0.7071 -7.8167 20.975)" fill="#010101" width="18.8" height="6"/>
	<path fill="#010101" d="M11.4,25.7l-2.4,6.4c-0.1,0.3,0,0.4,0.3,0.3l6.4-2.4L11.4,25.7z"/>
</g>
</svg>
