<?xml version="1.0" encoding="utf-8"?>
<!-- Generator: Adobe Illustrator 16.0.0, SVG Export Plug-In . SVG Version: 6.00 Build 0)  -->
<!DOCTYPE svg PUBLIC "-//W3C//DTD SVG 1.1//EN" "http://www.w3.org/Graphics/SVG/1.1/DTD/svg11.dtd">
<svg version="1.1" id="Layer_1" xmlns="http://www.w3.org/2000/svg" xmlns:xlink="http://www.w3.org/1999/xlink" x="0px" y="0px"
	 width="41.3px" height="41.3px" viewBox="0 0 41.3 41.3" enable-background="new 0 0 41.3 41.3" xml:space="preserve">
<path fill="#141A26" d="M36.1,5.3H10.8L6.1,10v25.3h24.6v-25H9.8l2.7-2.5h20.9l-0.1,23.8L36,29L36.1,5.3z M19.7,16.3
	c5.2,0.4,6.6,4.9,6.1,7.5c-0.6,2.7-3,4.8-5.7,4.8c-5.3,0-6.3-5.8-3.2-8.4c2.6-2.2,6.3-0.6,6,2.6c-0.1,1.5-1.4,2.6-2.6,2.6
	c-1.1,0-2.2-0.6-2.3-1.7c0-0.8,1.2-1.3,1.2-1.3s0.4,0.7,1.1,1c0.7,0.3,1.6,0.2,1.7-0.7c0.2-2.1-2.3-3.4-4.2-1.9
	c-1.9,1.5-1.3,5.8,1.9,5.8c3.6,0.1,5.2-3.5,3.5-6.3c-1.1-1.8-3.8-2.6-5.6-2c-2.1,0.6-4.4,3.2-3.6,7.8L11.1,27
	C11.1,27,10.9,15.7,19.7,16.3z"/>
</svg>
