<?xml version="1.0" encoding="utf-8"?>
<!-- Generator: Adobe Illustrator 16.0.0, SVG Export Plug-In . SVG Version: 6.00 Build 0)  -->
<!DOCTYPE svg PUBLIC "-//W3C//DTD SVG 1.1//EN" "http://www.w3.org/Graphics/SVG/1.1/DTD/svg11.dtd">
<svg version="1.1" id="Layer_1" xmlns="http://www.w3.org/2000/svg" xmlns:xlink="http://www.w3.org/1999/xlink" x="0px" y="0px"
	 width="23.1px" height="23.1px" viewBox="0 0 23.1 23.1" enable-background="new 0 0 23.1 23.1" xml:space="preserve">
<path fill="#FFFFFF" d="M17.3,14.5c0.9-1.5,1.5-3.2,1.5-5.1c0-5.2-4.2-9.4-9.4-9.4C4.2,0,0,4.2,0,9.4c0,5.2,4.2,9.4,9.4,9.4
	c1.9,0,3.6-0.6,5.1-1.5l5.8,5.8l2.8-2.8L17.3,14.5z M3,9.4C3,5.9,5.9,3,9.4,3C12.5,3,15,5.2,15.7,8c-1.4-2.5-4-5.3-8-3.8
	c-4,1.5-3.9,5.7-2.8,7.8c1.2,2.2,3.6,3.3,5.7,2.7c4.1-1.2,3.4-6.4,0.3-7.9c-2.6-1.3-5.1,1-4,3.7c0.5,1.2,1.8,1.9,2.7,1.6
	c0.8-0.2,1.6-1,1.4-1.9c-0.2-0.7-1.3-0.9-1.3-0.9s-0.1,0.7-0.6,1.1c-0.5,0.4-1.2,0.5-1.5-0.2c-0.7-1.7,0.9-3.4,2.8-2.6
	c1.9,0.8,2.5,4.6,0,5.4c-2.8,0.9-5-1.7-4.4-4.5c0.4-1.8,2.3-3.1,3.9-3c1.7,0.1,4,1.5,4.7,5.3c0,0.1,0.3,1.2-0.1,2.6
	c-1.2,1.4-2.9,2.3-4.9,2.3C5.9,15.8,3,12.9,3,9.4z"/>
</svg>
